<?xml version="1.0" encoding="UTF-8"?>
<svg id="Layer_1" data-name="Layer 1" xmlns="http://www.w3.org/2000/svg" viewBox="0 0 960 960">
  <defs>
    <style>
      .cls-1 {
        fill: #003594;
        fill-rule: evenodd;
        stroke-width: 0px;
      }
    </style>
  </defs>
  <path class="cls-1" d="M318.48,440.07v9.23h-56.98v-64.66c0-3.46,2.82-6.27,6.28-6.27h44.43c3.46,0,6.27,2.81,6.27,6.27v9.23h-37.1v11.95h25.24c3.46,0,6.28,2.81,6.28,6.28v8.73h-31.52v12.97h30.83c3.46,0,6.27,2.81,6.27,6.26ZM537.62,440.07v9.23h-56.97v-64.66c0-3.46,2.81-6.27,6.28-6.27h44.42c3.46,0,6.27,2.81,6.27,6.27v9.23h-37.1v11.95h25.25c3.46,0,6.28,2.81,6.28,6.28v8.73h-31.54v12.97h30.84c3.46,0,6.27,2.81,6.27,6.26ZM337.81,442.07c-5.84-5.74-8.76-13.87-8.76-24.41v-39.29h13.79c3.46,0,6.25,2.81,6.25,6.27v32.41c0,11.34,4.5,17.01,13.47,17.01s13.36-5.67,13.36-17.01v-32.41c0-3.46,2.81-6.27,6.26-6.27h13.48v39.29c0,10.53-2.92,18.67-8.75,24.41-5.84,5.74-14.03,8.61-24.56,8.61s-18.71-2.88-24.54-8.61ZM446.8,396.83c-2.1-1.82-5.2-2.74-9.32-2.74h-11.15v20.79h11.14c4.12,0,7.23-.89,9.32-2.69,2.1-1.78,3.14-4.33,3.14-7.65s-1.05-5.88-3.14-7.7h0ZM437.29,430.46h-10.94v12.58c0,3.46-2.81,6.27-6.27,6.27h-13.8v-64.66c0-3.46,2.81-6.27,6.26-6.27h26.16c6.42,0,11.99,1.07,16.72,3.19,4.74,2.13,8.38,5.17,10.95,9.12,2.57,3.95,3.86,8.59,3.86,13.94s-1.2,9.6-3.6,13.42c-2.4,3.82-5.84,6.81-10.3,8.97l15.3,22.29h-21.49l-12.87-18.86h0ZM575.76,423.56l-7.51,8.01v11.47c0,3.46-2.81,6.26-6.27,6.26h-13.59v-64.66c0-3.46,2.81-6.27,6.27-6.27h13.59v29.49l27.46-29.49h22.09l-28.99,31.42,30.51,39.52h-23.31l-20.25-25.75h0ZM671.91,420.81l-9.11-22.7-9.12,22.7h18.24,0ZM677.73,435.53h-29.98l-3.99,9.86c-.96,2.37-3.26,3.92-5.81,3.92h-16.24l29.67-67.19c1-2.27,3.25-3.74,5.74-3.74h15.67l31.41,70.93h-16.65c-2.56,0-4.86-1.55-5.81-3.92l-3.99-9.86h0ZM228.6,456.36h-62.32c-12.49,0-22.64,9.94-22.64,22.16v17.83h-.03l.02,73.28h-34.09v-74.42H33.5v-33.34l70.37-.03h22.95v-.02c12.37-.13,22.41-10.02,22.41-22.15v-61.02h-45.29l-.07,73.41-80.35.04v52.91l75.99.03-.07,74.38h54.17l-.02-78.72h75v-44.34h0ZM289.57,489.02v25.44h42.21c4.91,0,8.9,3.98,8.9,8.89v16.39h-51.11v30.76c0,4.91-3.98,8.89-8.9,8.89h-23.86v-106.78c0-4.89,3.98-8.87,8.88-8.87h73.03c4.91,0,8.9,3.98,8.9,8.89v16.38h-58.06,0ZM432.61,550.42c4.74-2.75,8.49-6.64,11.24-11.66,2.75-5,4.13-10.76,4.13-17.27s-1.38-12.25-4.12-17.28c-2.6-4.85-6.5-8.88-11.25-11.65-4.82-2.77-10.3-4.2-15.87-4.13-5.84,0-11.13,1.38-15.87,4.13-4.74,2.75-8.48,6.64-11.23,11.66-2.76,5.02-4.14,10.77-4.14,17.28s1.38,12.25,4.13,17.27c2.59,4.85,6.49,8.89,11.24,11.66,4.74,2.75,10.02,4.12,15.87,4.12s11.12-1.37,15.86-4.12ZM383.81,573.95c-9.48-4.92-17.43-12.36-22.98-21.49-5.56-9.15-8.34-19.45-8.34-30.91s2.78-21.76,8.34-30.91c5.55-9.13,13.5-16.56,22.98-21.49,9.75-5.17,20.74-7.77,32.98-7.77s23.22,2.59,32.98,7.77c9.48,4.93,17.43,12.36,22.98,21.49,5.57,9.15,8.35,19.44,8.35,30.91s-2.78,21.77-8.35,30.91c-5.55,9.13-13.5,16.56-22.98,21.49-9.74,5.17-20.74,7.77-32.98,7.77s-23.22-2.6-32.98-7.77ZM559.03,493.88c-3.42-2.97-8.48-4.46-15.21-4.46h-18.17v33.88h18.17c6.73,0,11.8-1.46,15.21-4.39,3.42-2.91,5.13-7.07,5.13-12.47s-1.71-9.59-5.13-12.57ZM543.54,548.67h-17.85v21.85c0,4.91-3.98,8.9-8.89,8.9h-23.84v-106.83c0-4.91,3.99-8.89,8.9-8.89h44c10.46,0,19.55,1.74,27.27,5.21,7.71,3.47,13.66,8.43,17.85,14.87,4.19,6.45,6.28,14.03,6.28,22.73s-1.96,15.67-5.87,21.9-9.5,11.1-16.77,14.63l24.95,36.36h-35.03l-21-30.74h0ZM688.14,544c0-7.82-5.73-11.73-17.19-11.73h-27.43v23.47h27.43c11.46,0,17.19-3.91,17.19-11.73ZM643.52,487.36v22.32h22.48c11.02,0,16.53-3.74,16.53-11.24s-5.52-11.08-16.53-11.08h-22.48ZM715.57,529.91c3.74,4.9,5.61,10.82,5.61,17.77,0,10.14-4.08,17.96-12.23,23.47-8.16,5.52-19.94,8.26-35.38,8.26h-62.47v-106.8c0-4.91,3.98-8.9,8.9-8.9h50.27c14.77,0,26.01,2.73,33.72,8.18,7.72,5.45,11.58,12.8,11.58,22.07,0,5.52-1.35,10.45-4.05,14.8-2.8,4.44-6.78,8.02-11.49,10.33,6.61,2.32,11.79,5.93,15.54,10.83h0ZM825.82,563.01v16.39h-92.96v-106.76c0-4.91,3.99-8.89,8.9-8.89h75.16c4.91,0,8.9,3.98,8.9,8.89v16.38h-60.55v19.5h42.53c4.93,0,8.92,3.98,8.92,8.89v15.56h-51.45v21.15h51.64c4.91,0,8.91,3.98,8.91,8.89h0ZM857.14,578.21c-8.81-2.32-15.96-5.39-21.47-9.25l6.79-15.26c2.04-4.5,7.34-6.5,11.84-4.46.06.03.12.05.18.08,3.1,1.44,6.4,2.7,9.94,3.77,6.52,2.05,13.32,3.11,20.15,3.15,12.56,0,18.83-3.14,18.83-9.42,0-3.31-1.79-5.75-5.37-7.35-3.59-1.6-9.33-3.28-17.27-5.04-8.7-1.87-15.96-3.88-21.8-6.03-5.8-2.12-10.97-5.67-15.03-10.32-4.19-4.74-6.28-11.12-6.28-19.16,0-7.05,1.93-13.41,5.79-19.08,3.85-5.67,9.6-10.16,17.26-13.46,7.65-3.31,17.04-4.96,28.17-4.96,7.6,0,15.08.86,22.47,2.56,7.38,1.71,13.87,4.21,19.49,7.52l-6.5,15.66c-1.89,4.53-7.07,6.67-11.6,4.79-8.19-3.39-16.21-5.09-24.03-5.09-6.49,0-11.23.96-14.21,2.89-2.96,1.92-4.46,4.43-4.46,7.52s1.75,5.39,5.29,6.93c3.53,1.55,9.19,3.14,17.01,4.8,8.81,1.88,16.1,3.89,21.89,6.03,5.78,2.15,10.79,5.56,15.03,10.24,4.24,4.68,6.36,11.04,6.36,19.07,0,6.95-1.93,13.23-5.78,18.84-3.86,5.61-9.64,10.1-17.35,13.46-7.71,3.36-17.07,5.04-28.08,5.04-9.36,0-18.44-1.16-27.26-3.47Z"/>
</svg>